<svg width="16" height="16" viewBox="0 0 16 16" fill="none" xmlns="http://www.w3.org/2000/svg">
<path d="M14.0286 3.69558H8.96455C8.75898 3.69558 8.5582 3.61117 8.41955 3.4677L6.83946 1.8032C6.45964 1.42461 5.93999 1.22686 5.41368 1.22989H1.97137C0.884405 1.22986 0 2.11427 0 3.2012V12.7988C0 13.8857 0.884405 14.7701 1.97137 14.7701H14.0358H14.0377C15.124 14.7653 16.0048 13.8767 16 12.7927V5.66692C16 4.57995 15.1156 3.69558 14.0286 3.69558ZM14.7943 12.7952C14.7961 13.2172 14.4543 13.5626 14.0347 13.5644H1.97137C1.54937 13.5644 1.20575 13.2208 1.20575 12.7988V3.2012C1.20575 2.7792 1.54937 2.43558 1.97137 2.43495H5.42936C5.43599 2.43495 5.44261 2.43495 5.44927 2.43495C5.65061 2.43495 5.84596 2.51514 5.97736 2.64536L7.54902 4.30201C7.91795 4.68301 8.43402 4.90126 8.96455 4.90126H14.0286C14.4506 4.90126 14.7942 5.24489 14.7942 5.66688V12.7952H14.7943Z" fill="#4353FF"/>
</svg>
